<svg width="24" height="24" viewBox="0 0 24 24" fill="none" xmlns="http://www.w3.org/2000/svg">
<g id="account-cancel-filled">
<g id="vector">
<path d="M6.6925 10.6575C7.55417 11.5192 8.59 11.95 9.8 11.95C11.01 11.95 12.0458 11.5192 12.9075 10.6575C13.7692 9.79583 14.2 8.75999 14.2 7.54999C14.2 6.33999 13.7692 5.30416 12.9075 4.44249C12.0458 3.58083 11.01 3.14999 9.8 3.14999C8.59 3.14999 7.55417 3.58083 6.6925 4.44249C5.83083 5.30416 5.4 6.33999 5.4 7.54999C5.4 8.75999 5.83083 9.79583 6.6925 10.6575Z" fill="#455A64"/>
<path d="M1 17.67V18.55C1 19.155 1.21542 19.6729 1.64625 20.1037C2.07708 20.5346 2.595 20.75 3.2 20.75H13.3829C12.519 19.704 12 18.3626 12 16.9C12 15.6017 12.4089 14.3989 13.1051 13.4134C12.019 13.1711 10.9173 13.05 9.8 13.05C8.59 13.05 7.39833 13.1921 6.225 13.4762C5.05167 13.7604 3.89667 14.1867 2.76 14.755C2.22833 15.03 1.80208 15.4287 1.48125 15.9512C1.16042 16.4737 1 17.0467 1 17.67Z" fill="#455A64"/>
<path d="M18.05 11.95C15.3 11.95 13.1 14.15 13.1 16.9C13.1 19.65 15.3 21.85 18.05 21.85C20.8 21.85 23 19.65 23 16.9C23 14.15 20.8 11.95 18.05 11.95ZM18.05 13.6C19.876 13.6 21.35 15.074 21.35 16.9C21.35 17.516 21.185 18.088 20.888 18.55L16.4 14.062C16.862 13.765 17.434 13.6 18.05 13.6ZM15.212 15.25L19.7 19.738C19.238 20.035 18.666 20.2 18.05 20.2C16.224 20.2 14.75 18.726 14.75 16.9C14.75 16.284 14.915 15.712 15.212 15.25Z" fill="#455A64"/>
</g>
</g>
</svg>
