<svg width="24" height="24" viewBox="0 0 24 24" fill="none" xmlns="http://www.w3.org/2000/svg">
<g id="account-cancel-outline">
<g id="vector">
<path d="M18.05 11.95C15.3 11.95 13.1 14.15 13.1 16.9C13.1 19.65 15.3 21.85 18.05 21.85C20.8 21.85 23 19.65 23 16.9C23 14.15 20.8 11.95 18.05 11.95ZM18.05 13.6C19.876 13.6 21.35 15.074 21.35 16.9C21.35 17.516 21.185 18.088 20.888 18.55L16.4 14.062C16.862 13.765 17.434 13.6 18.05 13.6ZM15.212 15.25L19.7 19.738C19.238 20.035 18.666 20.2 18.05 20.2C16.224 20.2 14.75 18.726 14.75 16.9C14.75 16.284 14.915 15.712 15.212 15.25Z" fill="#455A64"/>
<path d="M9.8 11.95C8.59 11.95 7.55417 11.5192 6.6925 10.6575C5.83083 9.79583 5.4 8.75999 5.4 7.54999C5.4 6.33999 5.83083 5.30416 6.6925 4.44249C7.55417 3.58083 8.59 3.14999 9.8 3.14999C11.01 3.14999 12.0458 3.58083 12.9075 4.44249C13.7692 5.30416 14.2 6.33999 14.2 7.54999C14.2 8.75999 13.7692 9.79583 12.9075 10.6575C12.0458 11.5192 11.01 11.95 9.8 11.95ZM1 18.55V17.67C1 17.065 1.15583 16.4967 1.4675 15.965C1.77917 15.4333 2.21 15.03 2.76 14.755C3.82333 14.2233 4.92333 13.8062 6.06 13.5037C7.19667 13.2012 8.36083 13.05 9.5525 13.05C9.86417 13.05 10.1254 13.16 10.3363 13.38C10.5471 13.6 10.6525 13.8658 10.6525 14.1775C10.6525 14.4892 10.5471 14.7504 10.3363 14.9612C10.1254 15.1721 9.86417 15.2775 9.5525 15.2775C8.52583 15.2775 7.53125 15.4058 6.56875 15.6625C5.60625 15.9192 4.66667 16.2767 3.75 16.735C3.56667 16.8267 3.42917 16.955 3.3375 17.12C3.24583 17.285 3.2 17.4683 3.2 17.67V18.55H9.5525C9.86417 18.55 10.1254 18.6554 10.3363 18.8662C10.5471 19.0771 10.6525 19.3383 10.6525 19.65C10.6525 19.9617 10.5471 20.2229 10.3363 20.4337C10.1254 20.6446 9.86417 20.75 9.5525 20.75H3.2C2.595 20.75 2.07708 20.5346 1.64625 20.1037C1.21542 19.6729 1 19.155 1 18.55ZM9.8 9.74999C10.405 9.74999 10.9229 9.53458 11.3538 9.10374C11.7846 8.67291 12 8.15499 12 7.54999C12 6.94499 11.7846 6.42708 11.3538 5.99624C10.9229 5.56541 10.405 5.34999 9.8 5.34999C9.195 5.34999 8.67708 5.56541 8.24625 5.99624C7.81542 6.42708 7.6 6.94499 7.6 7.54999C7.6 8.15499 7.81542 8.67291 8.24625 9.10374C8.67708 9.53458 9.195 9.74999 9.8 9.74999Z" fill="#455A64"/>
</g>
</g>
</svg>
