<svg width="24" height="24" viewBox="0 0 24 24" fill="none" xmlns="http://www.w3.org/2000/svg">
<g id="chevron-double-arrow-up">
<path id="vector" d="M12 13.825L8.10005 17.7C7.91672 17.8833 7.68755 17.9792 7.41255 17.9875C7.13755 17.9958 6.90005 17.9 6.70005 17.7C6.51672 17.5167 6.42505 17.2833 6.42505 17C6.42505 16.7167 6.51672 16.4833 6.70005 16.3L11.3 11.7C11.4 11.6 11.5084 11.5292 11.625 11.4875C11.7417 11.4458 11.8667 11.425 12 11.425C12.1334 11.425 12.2584 11.4458 12.375 11.4875C12.4917 11.5292 12.6 11.6 12.7 11.7L17.3 16.3C17.4834 16.4833 17.5792 16.7125 17.5875 16.9875C17.5959 17.2625 17.5 17.5 17.3 17.7C17.1167 17.8833 16.8834 17.975 16.6 17.975C16.3167 17.975 16.0834 17.8833 15.9 17.7L12 13.825ZM12 7.82499L8.10005 11.7C7.91672 11.8833 7.68755 11.9792 7.41255 11.9875C7.13755 11.9958 6.90005 11.9 6.70005 11.7C6.51672 11.5167 6.42505 11.2833 6.42505 11C6.42505 10.7167 6.51672 10.4833 6.70005 10.3L11.3 5.69999C11.4 5.59999 11.5084 5.52915 11.625 5.48749C11.7417 5.44582 11.8667 5.42499 12 5.42499C12.1334 5.42499 12.2584 5.44582 12.375 5.48749C12.4917 5.52915 12.6 5.59999 12.7 5.69999L17.3 10.3C17.4834 10.4833 17.5792 10.7125 17.5875 10.9875C17.5959 11.2625 17.5 11.5 17.3 11.7C17.1167 11.8833 16.8834 11.975 16.6 11.975C16.3167 11.975 16.0834 11.8833 15.9 11.7L12 7.82499Z" fill="#455A64"/>
</g>
</svg>
