<svg width="24" height="24" viewBox="0 0 24 24" fill="none" xmlns="http://www.w3.org/2000/svg">
<g id="chevron-double-arrow-down">
<path id="vector" d="M12 16.175L15.9 12.3C16.0833 12.1167 16.3125 12.0209 16.5875 12.0125C16.8625 12.0042 17.1 12.1 17.3 12.3C17.4833 12.4834 17.575 12.7167 17.575 13C17.575 13.2834 17.4833 13.5167 17.3 13.7L12.7 18.3C12.6 18.4 12.4917 18.4709 12.375 18.5125C12.2583 18.5542 12.1333 18.575 12 18.575C11.8667 18.575 11.7417 18.5542 11.625 18.5125C11.5083 18.4709 11.4 18.4 11.3 18.3L6.69999 13.7C6.51665 13.5167 6.42082 13.2875 6.41249 13.0125C6.40415 12.7375 6.49999 12.5 6.69999 12.3C6.88332 12.1167 7.11665 12.025 7.39999 12.025C7.68332 12.025 7.91665 12.1167 8.09999 12.3L12 16.175ZM12 10.175L15.9 6.30002C16.0833 6.11669 16.3125 6.02086 16.5875 6.01252C16.8625 6.00419 17.1 6.10002 17.3 6.30002C17.4833 6.48336 17.575 6.71669 17.575 7.00002C17.575 7.28336 17.4833 7.51669 17.3 7.70002L12.7 12.3C12.6 12.4 12.4917 12.4709 12.375 12.5125C12.2583 12.5542 12.1333 12.575 12 12.575C11.8667 12.575 11.7417 12.5542 11.625 12.5125C11.5083 12.4709 11.4 12.4 11.3 12.3L6.69999 7.70002C6.51665 7.51669 6.42082 7.28752 6.41249 7.01252C6.40415 6.73752 6.49999 6.50002 6.69999 6.30002C6.88332 6.11669 7.11665 6.02502 7.39999 6.02502C7.68332 6.02502 7.91665 6.11669 8.09999 6.30002L12 10.175Z" fill="#455A64"/>
</g>
</svg>
