<svg width="24" height="24" viewBox="0 0 24 24" fill="none" xmlns="http://www.w3.org/2000/svg">
<g id="database-sync-filled">
<path id="vector" d="M18.4879 12.5121C18.6769 12.3231 19 12.457 19 12.7243V13.5C20.0609 13.5 21.0783 13.9214 21.8284 14.6716C22.5786 15.4217 23 16.4391 23 17.5C23 18.32 22.75 19.08 22.33 19.71L21.24 18.62C21.41 18.28 21.5 17.9 21.5 17.5C21.5 16.837 21.2366 16.2011 20.7678 15.7322C20.2989 15.2634 19.663 15 19 15V15.7757C19 16.043 18.6769 16.1769 18.4879 15.9879L16.9621 14.4621C16.845 14.345 16.845 14.155 16.9621 14.0379L18.4879 12.5121ZM19.5121 22.4879C19.3231 22.6769 19 22.543 19 22.2757V21.5C17.9391 21.5 16.9217 21.0786 16.1716 20.3284C15.4214 19.5783 15 18.5609 15 17.5C15 16.68 15.25 15.92 15.67 15.29L16.76 16.38C16.59 16.72 16.5 17.1 16.5 17.5C16.5 18.163 16.7634 18.7989 17.2322 19.2678C17.7011 19.7366 18.337 20 19 20V19.2243C19 18.957 19.3231 18.8231 19.5121 19.0121L21.0379 20.5379C21.155 20.655 21.155 20.845 21.0379 20.9621L19.5121 22.4879ZM12 3C16.42 3 20 4.79 20 7C20 9.21 16.42 11 12 11C7.58 11 4 9.21 4 7C4 4.79 7.58 3 12 3ZM4 9C4 11.21 7.58 13 12 13C13.11 13 14.17 12.89 15.14 12.68C14.19 13.54 13.5 14.67 13.18 15.96L12 16C7.58 16 4 14.21 4 12V9ZM20 9V11H19.5L18.9 11.03C19.6 10.43 20 9.74 20 9ZM4 14C4 16.21 7.58 18 12 18L13 17.97C13.09 19.03 13.42 20 13.95 20.88L12 21C7.58 21 4 19.21 4 17V14Z" fill="#455A64"/>
</g>
</svg>
