<svg width="24" height="24" viewBox="0 0 24 24" fill="none" xmlns="http://www.w3.org/2000/svg">
<g id="done-all">
<path id="vector" d="M1.75004 13.05C1.55004 12.85 1.4542 12.6167 1.46254 12.35C1.47087 12.0833 1.57504 11.85 1.77504 11.65C1.97504 11.4667 2.20837 11.3708 2.47504 11.3625C2.7417 11.3542 2.97504 11.45 3.17504 11.65L7.42504 15.9C7.62504 16.1 7.72087 16.3333 7.71254 16.6C7.7042 16.8667 7.60004 17.1 7.40004 17.3C7.20004 17.4833 6.9667 17.5792 6.70004 17.5875C6.43337 17.5958 6.20004 17.5 6.00004 17.3L1.75004 13.05ZM12.35 15.175L20.85 6.67499C21.05 6.47499 21.2834 6.37916 21.55 6.38749C21.8167 6.39583 22.05 6.49999 22.25 6.69999C22.4334 6.89999 22.5292 7.13333 22.5375 7.39999C22.5459 7.66666 22.45 7.89999 22.25 8.09999L13.05 17.3C12.85 17.5 12.6167 17.6 12.35 17.6C12.0834 17.6 11.85 17.5 11.65 17.3L7.40004 13.05C7.2167 12.8667 7.12504 12.6375 7.12504 12.3625C7.12504 12.0875 7.2167 11.85 7.40004 11.65C7.60004 11.45 7.83754 11.35 8.11254 11.35C8.38754 11.35 8.62504 11.45 8.82504 11.65L12.35 15.175ZM16.575 8.12499L13.05 11.65C12.8667 11.8333 12.6375 11.925 12.3625 11.925C12.0875 11.925 11.85 11.8333 11.65 11.65C11.45 11.45 11.35 11.2125 11.35 10.9375C11.35 10.6625 11.45 10.425 11.65 10.225L15.175 6.69999C15.3584 6.51666 15.5875 6.42499 15.8625 6.42499C16.1375 6.42499 16.375 6.51666 16.575 6.69999C16.775 6.89999 16.875 7.13749 16.875 7.41249C16.875 7.68749 16.775 7.92499 16.575 8.12499Z" fill="#455A64"/>
</g>
</svg>
