<svg width="24" height="24" viewBox="0 0 24 24" fill="none" xmlns="http://www.w3.org/2000/svg">
<g id="sort">
<g id="vector">
<path fill-rule="evenodd" clip-rule="evenodd" d="M15.2071 17C14.7617 17 14.5386 17.5386 14.8536 17.8536L17.6464 20.6465C17.8417 20.8418 18.1583 20.8418 18.3536 20.6465L21.1464 17.8536C21.4614 17.5386 21.2383 17 20.7929 17H19V7.00005H20.7929C21.2383 7.00005 21.4614 6.46148 21.1464 6.14649L18.3536 3.3536C18.1583 3.15834 17.8417 3.15834 17.6464 3.3536L14.8536 6.14649C14.5386 6.46148 14.7617 7.00005 15.2071 7.00005H17V17H15.2071ZM3 11C2.44772 11 2 11.4478 2 12C2 12.5523 2.44772 13 3 13H8C8.55228 13 9 12.5523 9 12C9 11.4478 8.55228 11 8 11H3ZM3 5.00005C2.44772 5.00005 2 5.44776 2 6.00005C2 6.55233 2.44772 7.00005 3 7.00005H5C5.55228 7.00005 6 6.55233 6 6.00005C6 5.44776 5.55228 5.00005 5 5.00005H3Z" fill="#455A64"/>
<path d="M3 19C2.44772 19 2 18.5523 2 18C2 17.4478 2.44772 17 3 17H11C11.5523 17 12 17.4478 12 18C12 18.5523 11.5523 19 11 19H3Z" fill="#455A64"/>
</g>
</g>
</svg>
