<svg width="24" height="24" viewBox="0 0 24 24" fill="none" xmlns="http://www.w3.org/2000/svg">
<g id="visibility-off-filled">
<path id="vector" d="M19.1 21.9L15.6 18.45C15.0167 18.6333 14.425 18.7708 13.825 18.8625C13.225 18.9541 12.6167 19 12 19C9.76669 19 7.72502 18.4 5.87502 17.2C4.02502 16 2.57502 14.4166 1.52502 12.45C1.44169 12.3 1.37919 12.1458 1.33752 11.9875C1.29586 11.8291 1.27502 11.6666 1.27502 11.5C1.27502 11.3333 1.29586 11.1708 1.33752 11.0125C1.37919 10.8541 1.44169 10.7 1.52502 10.55C1.89169 9.89998 2.28336 9.26664 2.70002 8.64998C3.11669 8.03331 3.60002 7.48331 4.15002 6.99998L2.07502 4.89998C1.89169 4.71664 1.80002 4.48748 1.80002 4.21248C1.80002 3.93748 1.90002 3.69998 2.10002 3.49998C2.28336 3.31664 2.51669 3.22498 2.80002 3.22498C3.08336 3.22498 3.31669 3.31664 3.50002 3.49998L20.5 20.5C20.6834 20.6833 20.7792 20.9125 20.7875 21.1875C20.7959 21.4625 20.7 21.7 20.5 21.9C20.3167 22.0833 20.0834 22.175 19.8 22.175C19.5167 22.175 19.2834 22.0833 19.1 21.9ZM12 16C12.1834 16 12.3584 15.9916 12.525 15.975C12.6917 15.9583 12.8584 15.925 13.025 15.875L7.62502 10.475C7.57502 10.6416 7.54169 10.8083 7.52502 10.975C7.50836 11.1416 7.50002 11.3166 7.50002 11.5C7.50002 12.75 7.93752 13.8125 8.81252 14.6875C9.68752 15.5625 10.75 16 12 16ZM12 3.99998C14.2334 3.99998 16.2792 4.60414 18.1375 5.81248C19.9959 7.02081 21.45 8.60831 22.5 10.575C22.5834 10.7083 22.6459 10.8541 22.6875 11.0125C22.7292 11.1708 22.75 11.3333 22.75 11.5C22.75 11.6666 22.7334 11.8291 22.7 11.9875C22.6667 12.1458 22.6084 12.2916 22.525 12.425C22.2084 13.0416 21.8542 13.625 21.4625 14.175C21.0709 14.725 20.6334 15.2416 20.15 15.725C19.9167 15.9583 19.6417 16.0666 19.325 16.05C19.0084 16.0333 18.7334 15.9083 18.5 15.675L16.5 13.675C16.3834 13.5583 16.3084 13.4208 16.275 13.2625C16.2417 13.1041 16.25 12.9416 16.3 12.775C16.3667 12.5583 16.4167 12.35 16.45 12.15C16.4834 11.95 16.5 11.7333 16.5 11.5C16.5 10.25 16.0625 9.18748 15.1875 8.31248C14.3125 7.43748 13.25 6.99998 12 6.99998C11.7667 6.99998 11.55 7.01664 11.35 7.04998C11.15 7.08331 10.9417 7.13331 10.725 7.19998C10.5584 7.24998 10.3917 7.25831 10.225 7.22498C10.0584 7.19164 9.91669 7.11664 9.80002 6.99998L8.97502 6.17498C8.65836 5.85831 8.55419 5.49164 8.66252 5.07498C8.77086 4.65831 9.03336 4.39164 9.45002 4.27498C9.86669 4.19164 10.2875 4.12498 10.7125 4.07498C11.1375 4.02498 11.5667 3.99998 12 3.99998ZM13.975 9.64998C14.1584 9.86664 14.3125 10.1041 14.4375 10.3625C14.5625 10.6208 14.6417 10.8916 14.675 11.175C14.6917 11.3083 14.6417 11.4 14.525 11.45C14.4084 11.5 14.3 11.475 14.2 11.375L12.15 9.32498C12.05 9.22498 12.0292 9.11664 12.0875 8.99998C12.1459 8.88331 12.2417 8.82498 12.375 8.82498C12.6917 8.85831 12.9834 8.94581 13.25 9.08748C13.5167 9.22914 13.7584 9.41664 13.975 9.64998Z" fill="#455A64"/>
</g>
</svg>
